<svg xmlns="http://www.w3.org/2000/svg" width="26.894" height="30" viewBox="0 0 26.894 30">
  <g id="coil" transform="translate(-209.429 -118.12)">
    <path id="Path_9323" data-name="Path 9323" d="M222.849,118.12a13.45,13.45,0,1,1-13.42,13.466A13.47,13.47,0,0,1,222.849,118.12ZM211.5,131.551a11.378,11.378,0,1,0,11.411-11.362A11.386,11.386,0,0,0,211.5,131.551Z" fill="#878787"/>
    <path id="Path_9324" data-name="Path 9324" d="M212.609,1237.785H210.56v-6.925c.054.1.093.166.124.235a14.872,14.872,0,0,0,1.769,3.028.641.641,0,0,1,.15.339C212.614,1235.559,212.609,1236.656,212.609,1237.785Z" transform="translate(-1.111 -1093.813)" fill="#878787"/>
    <path id="Path_9325" data-name="Path 9325" d="M1670.931,1228.31v6.957h-2.061v-.986c0-.743-.005-1.485.005-2.228a.687.687,0,0,1,.115-.383,14.766,14.766,0,0,0,1.839-3.173C1670.845,1228.461,1670.867,1228.427,1670.931,1228.31Z" transform="translate(-1434.615 -1091.307)" fill="#878787"/>
    <path id="Path_9326" data-name="Path 9326" d="M239.864,1700.36h1.024c0,.89.015,1.768-.009,2.645a.463.463,0,0,1-.508.441.487.487,0,0,1-.5-.485C239.856,1702.1,239.864,1701.245,239.864,1700.36Z" transform="translate(-29.914 -1555.327)" fill="#878787"/>
    <path id="Path_9327" data-name="Path 9327" d="M1699.3,1700.35h1.034v.8c0,.569,0,1.139,0,1.708a.523.523,0,0,1-.51.583.518.518,0,0,1-.52-.572C1699.3,1702.039,1699.3,1701.213,1699.3,1700.35Z" transform="translate(-1464.531 -1555.318)" fill="#878787"/>
    <path id="Path_9328" data-name="Path 9328" d="M402.216,321.279a10.346,10.346,0,1,1,10.337-10.344A10.358,10.358,0,0,1,402.216,321.279Zm0-18.622a8.277,8.277,0,1,0,8.265,8.269A8.281,8.281,0,0,0,402.219,302.656Z" transform="translate(-179.333 -179.364)" fill="#878787"/>
    <path id="Path_9329" data-name="Path 9329" d="M574.31,490.3a7.241,7.241,0,1,1,7.288,7.249A7.249,7.249,0,0,1,574.31,490.3Zm12.412.026a5.171,5.171,0,1,0-5.141,5.156A5.179,5.179,0,0,0,586.722,490.328Z" transform="translate(-358.674 -358.742)" fill="#878787"/>
    <path id="Path_9330" data-name="Path 9330" d="M756.759,669.673a4.137,4.137,0,1,1,4.115,4.153A4.14,4.14,0,0,1,756.759,669.673Z" transform="translate(-538.02 -538.119)" fill="#878787"/>
  </g>
</svg>
