<svg xmlns="http://www.w3.org/2000/svg" width="30" height="30" viewBox="0 0 30 30">
  <g id="firmware" transform="translate(-214.11 -214.12)">
    <path id="Path_9331" data-name="Path 9331" d="M223.2,214.12h1.524q0,2.827-.011,5.654c0,.232.127.31.332.31h2.989c.227,0,.335-.1.335-.34q-.01-2.813-.01-5.625h1.524q0,2.813-.01,5.625c0,.218.086.338.3.338q1.523,0,3.047,0a.271.271,0,0,0,.3-.309q-.008-2.827-.011-5.654h1.524c0,1.866,0,3.732-.009,5.6,0,.292.138.371.4.37.8-.005,1.6,0,2.4,0h.332c0,.93,0,1.818,0,2.705,0,.369.054.421.425.421H244.1v1.509h-5.531c-.353,0-.407.054-.408.408q0,1.392,0,2.784c0,.425.037.459.475.459h5.468v1.51h-5.5c-.407,0-.446.041-.447.458q0,1.377,0,2.755c0,.395.045.439.436.44h5.51v1.509H238.56c-.333,0-.395.058-.4.39,0,.8,0,1.6,0,2.4v.332c-.931,0-1.818,0-2.705,0-.369,0-.423.057-.423.424q0,2.608,0,5.217v.3h-1.508v-.343q0-2.579,0-5.158c0-.391-.047-.439-.437-.439q-1.377,0-2.755,0c-.427,0-.46.036-.46.475q0,2.579,0,5.158v.311h-1.509v-.338q0-2.579,0-5.158c0-.407-.042-.447-.458-.448q-1.377,0-2.755,0c-.392,0-.439.047-.439.438q0,2.594,0,5.188v.322H223.2v-.333q0-2.608,0-5.217c0-.33-.063-.4-.392-.4-.8,0-1.6,0-2.4,0h-.333v-.36c0-.8,0-1.6,0-2.4,0-.256-.1-.368-.368-.366-1.866.008-3.732.006-5.6.008v-1.524q2.827,0,5.654.011c.231,0,.309-.126.309-.333q0-1.494,0-2.989c0-.228-.1-.335-.339-.334q-2.813.01-5.625.01v-1.524q2.813,0,5.625.009c.218,0,.337-.085.337-.3q0-1.524,0-3.047a.269.269,0,0,0-.308-.3q-2.827.008-5.654.011v-1.524c1.866,0,3.731,0,5.6.008.267,0,.37-.11.368-.366,0-.811,0-1.622,0-2.432v-.331h.362c.791,0,1.582,0,2.374,0,.259,0,.4-.078.4-.37C223.2,217.851,223.2,215.986,223.2,214.12Zm5.926,11.971a3.037,3.037,0,1,0,3.033,3.049A3.054,3.054,0,0,0,229.123,226.091Z" fill="#878787"/>
  </g>
</svg>
