<svg xmlns="http://www.w3.org/2000/svg" width="28" height="22.805" viewBox="0 0 28 22.805">
  <g id="group_2_" data-name="group (2)" transform="translate(-199.062 -347.655)">
    <path id="Path_9319" fill="#878787" data-name="Path 9319" d="M208.783,1053.372h-8.545c-.855,0-1.186-.333-1.175-1.18a9.736,9.736,0,0,1,19.288-1.617,11.258,11.258,0,0,1,.18,1.677.953.953,0,0,1-1.086,1.119Z" transform="translate(0 -682.912)"/>
    <path id="Path_9320" fill="#878787" data-name="Path 9320" d="M450.666,352.977a5.332,5.332,0,1,1,5.191,5.346A5.341,5.341,0,0,1,450.666,352.977Z" transform="translate(-247.205)"/>
    <path id="Path_9321" fill="#878787" data-name="Path 9321" d="M1198.84,1049.019a6.516,6.516,0,0,1,2.54-.9,6.967,6.967,0,0,1,7.836,5.495,7.194,7.194,0,0,1,.146,1.213c.034.8-.331,1.153-1.141,1.154h-3.734c-.564,0-1.128,0-1.692,0-.148,0-.225-.031-.254-.2a11.449,11.449,0,0,0-3.613-6.659A1.313,1.313,0,0,1,1198.84,1049.019Z" transform="translate(-982.302 -688.154)"/>
    <path id="Path_9322" fill="#878787" data-name="Path 9322" d="M1177.718,530.87a3.967,3.967,0,1,1-3.978,3.956A3.969,3.969,0,0,1,1177.718,530.87Z" transform="translate(-957.64 -180.012)"/>
  </g>
</svg>
